{"title":"Goreyan Nu Daffa Karo 2014 Punjabi DvDRip  x264 AC3  GOPI SAHI P","uid":11457537,"size":732748862,"categoryP":"video","categoryS":"movies","magnet":"?xt=urn:btih:ba9877795a1093e7d378ae3a376efb5144138898&amp;dn=Goreyan+Nu+Daffa+Karo+2014+Punjabi+DvDRip++x264+AC3++GOPI+SAHI+P&amp;tr=udp%3A%2F%2Ftracker.openbittorrent.com%3A80&amp;tr=udp%3A%2F%2Fopen.demonii.com%3A1337&amp;tr=udp%3A%2F%2Ftracker.coppersurfer.tk%3A6969&amp;tr=udp%3A%2F%2Fexodus.desync.com%3A6969","seeders":0,"leechers":1,"uploader":"jatt13","files":1,"time":1415959613,"description":"General\nUnique ID                      : 222979403554360524980483196385447643729 (0xA7C0456222F4B206A4DB122721AC0A51)\nComplete name                  : D:Goreyan Nu Daffa Karo 2014 Punjabi DvDRip  x264 AC3  GOPI SAHI PDR.mkv\nFormat                         : Matroska\nFormat version                 : Version 4 / Version 2\nFile size                      : 699 MiB\nDuration                       : 2h 14mn\nOverall bit rate               : 729 Kbps\nMovie name                     : GOPI SAHI\nEncoded date                   : UTC 2014-11-14 22:24:55\nWriting application            : mkvmerge v6.5.0 ('Isn't she lovely') built on Oct 20 2013 12:50:05\nWriting library                : libebml v1.3.0 + libmatroska v1.4.1\n\nVideo\nID                             : 1\nFormat                         : AVC\nFormat/Info                    : Advanced Video Codec\nFormat profile                 : &lt;a class=&quot;__cf_email__&quot; href=&quot;/cdn-cgi/l/email-protection&quot; data-cfemail=&quot;87cfeee0efc7cbb5a9b6&quot;&gt;[email&amp;#160;protected]&lt;/a&gt;&lt;script cf-hash='f9e31' type=&quot;text/javascript&quot;&gt;\n/* &lt;![CDATA[ */!function(){try{var t=&quot;currentScript&quot;in document?document.currentScript:function(){for(var t=document.getElementsByTagName(&quot;script&quot;),e=t.length;e--;)if(t[e].getAttribute(&quot;cf-hash&quot;))return t[e]}();if(t&amp;&amp;t.previousSibling){var e,r,n,i,c=t.previousSibling,a=c.getAttribute(&quot;data-cfemail&quot;);if(a){for(e=&quot;&quot;,r=parseInt(a.substr(0,2),16),n=2;a.length-n;n+=2)i=parseInt(a.substr(n,2),16)^r,e+=String.fromCharCode(i);e=document.createTextNode(e),c.parentNode.replaceChild(e,c)}}}catch(u){}}();/* ]]&gt; */&lt;/script&gt;\nFormat settings, CABAC         : Yes\nFormat settings, ReFrames      : 4 frames\nCodec ID                       : V_MPEG4/ISO/AVC\nDuration                       : 2h 14mn\nBit rate                       : 599 Kbps\nWidth                          : 640 pixels\nHeight                         : 272 pixels\nDisplay aspect ratio           : 2.35:1\nFrame rate mode                : Constant\nFrame rate                     : 23.976 fps\nColor space                    : YUV\nChroma subsampling             : 4:2:0\nBit depth                      : 8 bits\nScan type                      : Progressive\nBits/(Pixel*Frame)             : 0.144\nStream size                    : 562 MiB (80%)\nTitle                          : GOPI SAHI\nWriting library                : x264 core 142 r2431 ac76440\nLanguage                       : Panjabi\nDefault                        : Yes\nForced                         : No\n\nAudio\nID                             : 2\nFormat                         : AC-3\nFormat/Info                    : Audio Coding 3\nMode extension                 : CM (complete main)\nFormat settings, Endianness    : Big\nCodec ID                       : A_AC3\nDuration                       : 2h 14mn\nBit rate mode                  : Constant\nBit rate                       : 128 Kbps\nChannel(s)                     : 6 channels\nChannel positions              : Front: L C R, Side: L R, LFE\nSampling rate                  : 48.0 KHz\nBit depth                      : 16 bits\nCompression mode               : Lossy\nDelay relative to video        : 300ms\nStream size                    : 123 MiB (18%)\nTitle                          : GOPI SAHI\nLanguage                       : Panjabi\nDefault                        : Yes\nForced                         : No\n[IMG] http://imgchicken.com/images/53507028145396567890.jpg\n[IMG] http://imgchicken.com/images/80698422750499580968.jpg\n[IMG] http://imgchicken.com/images/12052465757527882789.jpg\n[IMG] http://imgchicken.com/images/17867819435685748197.jpg","torrent":{"xt":"urn:btih:ba9877795a1093e7d378ae3a376efb5144138898","amp;dn":"Goreyan+Nu+Daffa+Karo+2014+Punjabi+DvDRip++x264+AC3++GOPI+SAHI+P","amp;tr":["udp%3A%2F%2Ftracker.openbittorrent.com%3A80","udp%3A%2F%2Fopen.demonii.com%3A1337","udp%3A%2F%2Ftracker.coppersurfer.tk%3A6969","udp%3A%2F%2Fexodus.desync.com%3A6969"],"infoHash":"ba9877795a1093e7d378ae3a376efb5144138898","infoHashBuffer":{"type":"Buffer","data":[186,152,119,121,90,16,147,231,211,120,174,58,55,110,251,81,68,19,136,152]},"announce":[],"urlList":[]}}